<svg height="480pt" viewBox="0 0 480 480" width="480pt" xmlns="http://www.w3.org/2000/svg"><path d="m168 56h272c17.671875 0 32 14.328125 32 32v352c0 17.671875-14.328125 32-32 32h-272c-17.671875 0-32-14.328125-32-32v-352c0-17.671875 14.328125-32 32-32zm0 0" fill="#3d9ae2"/><path d="m440 104v320c-.027344 8.824219-7.175781 15.972656-16 16h-240c-8.824219-.027344-15.972656-7.175781-16-16v-320c.027344-8.824219 7.175781-15.972656 16-16h24c.027344 8.824219 7.175781 15.972656 16 16h160c8.824219-.027344 15.972656-7.175781 16-16h24c8.824219.027344 15.972656 7.175781 16 16zm0 0" fill="#e6e7e8"/><path d="m264 328c13.253906 0 24 10.746094 24 24s-10.746094 24-24 24-24-10.746094-24-24 10.746094-24 24-24zm0 0" fill="#e6e7e8"/><path d="m320 352h-32c0-13.253906-10.746094-24-24-24v-32c30.929688 0 56 25.070312 56 56zm0 0" fill="#ffd422"/><path d="m264 296v32c-9.699219.007812-18.441406 5.855469-22.152344 14.820312-3.710937 8.960938-1.664062 19.277344 5.191406 26.140626l-22.640624 22.640624c-16.015626-16.015624-20.808594-40.105468-12.140626-61.03125 8.667969-20.929687 29.089844-34.570312 51.742188-34.570312zm0 0" fill="#00ccb3"/><path d="m360 376h32v32h-32zm0 0" fill="#ff9811"/><path d="m320 352c0 22.652344-13.640625 43.074219-34.570312 51.742188-20.925782 8.667968-45.015626 3.875-61.03125-12.140626l22.640624-22.640624c6.863282 6.855468 17.179688 8.902343 26.140626 5.191406 8.964843-3.710938 14.8125-12.453125 14.820312-22.152344zm0 0" fill="#ff9811"/><path d="m400 240c.039062 14.859375-5.867188 29.117188-16.398438 39.601562l-39.601562-39.601562zm0 0" fill="#ff6243"/><path d="m400 240h-56v-56c30.929688 0 56 25.070312 56 56zm0 0" fill="#00ccb3"/><path d="m300.640625 204.640625c10.582031-13.09375 26.527344-20.683594 43.359375-20.640625v56l39.601562 39.601562c-21.136718 20.808594-54.828124 21.53125-76.835937 1.648438-22.007813-19.886719-24.695313-53.480469-6.125-76.609375zm0 0" fill="#3d9ae2"/><path d="m400 56v32c-.027344 8.824219-7.175781 15.972656-16 16h-160c-8.824219-.027344-15.972656-7.175781-16-16v-48h192zm0 0" fill="#ee8700"/><path d="m232 224v-32l-26.71875-5.359375c-2.101562-8.398437-5.445312-16.433594-9.921875-23.839844l15.121094-22.722656-22.558594-22.558594-22.722656 15.121094c-7.40625-4.476563-15.441407-7.820313-23.839844-9.921875l-5.359375-26.71875h-32l-5.359375 26.71875c-8.398437 2.101562-16.433594 5.445312-23.839844 9.921875l-22.722656-15.121094-22.558594 22.558594 15.121094 22.722656c-4.476563 7.40625-7.820313 15.441407-9.921875 23.839844l-26.71875 5.359375v32l26.71875 5.359375c2.101562 8.398437 5.445312 16.433594 9.921875 23.839844l-15.121094 22.722656 22.558594 22.558594 22.722656-15.121094c7.40625 4.476563 15.441407 7.820313 23.839844 9.921875l2.160156 10.71875 3.199219 16h32l5.359375-26.71875c8.398437-2.101562 16.433594-5.445312 23.839844-9.921875l22.722656 15.121094 22.558594-22.558594-15.121094-22.722656c4.476563-7.40625 7.820313-15.441407 9.921875-23.839844zm0 0" fill="#ff9811"/><path d="m168 208c0 26.507812-21.492188 48-48 48s-48-21.492188-48-48 21.492188-48 48-48 48 21.492188 48 48zm0 0" fill="#ff6243"/><path d="m440 48h-32v-8c0-4.417969-3.582031-8-8-8h-73.472656c.949218-2.5625 1.445312-5.269531 1.472656-8 0-13.253906-10.746094-24-24-24s-24 10.746094-24 24c.027344 2.730469.523438 5.4375 1.472656 8h-73.472656c-4.417969 0-8 3.582031-8 8v8h-32c-14.285156.027344-27.480469 7.640625-34.648438 20l13.847657 8c4.308593-7.414062 12.226562-11.980469 20.800781-12h32v16h-16c-13.253906 0-24 10.746094-24 24h16c0-4.417969 3.582031-8 8-8h17.472656c3.378906 9.554688 12.394532 15.957031 22.527344 16h160c10.132812-.042969 19.148438-6.445312 22.527344-16h17.472656c4.417969 0 8 3.582031 8 8v320c0 4.417969-3.582031 8-8 8h-240c-4.417969 0-8-3.582031-8-8v-104h-16v104c0 13.253906 10.746094 24 24 24h240c13.253906 0 24-10.746094 24-24v-320c0-13.253906-10.746094-24-24-24h-16v-16h32c13.253906 0 24 10.746094 24 24v352c0 13.253906-10.746094 24-24 24h-272c-13.253906 0-24-10.746094-24-24v-96h-16v96c.027344 22.082031 17.917969 39.972656 40 40h272c22.082031-.027344 39.972656-17.917969 40-40v-352c-.027344-22.082031-17.917969-39.972656-40-40zm-144-24c0-4.417969 3.582031-8 8-8s8 3.582031 8 8-3.582031 8-8 8-8-3.582031-8-8zm96 64c0 4.417969-3.582031 8-8 8h-160c-4.417969 0-8-3.582031-8-8v-40h176zm0 0"/><path d="m296 128h16v16h-16zm0 0"/><path d="m328 128h16v16h-16zm0 0"/><path d="m264 128h16v16h-16zm0 0"/><path d="m344 304c35.347656 0 64-28.652344 64-64s-28.652344-64-64-64-64 28.652344-64 64c.039062 35.328125 28.671875 63.960938 64 64zm19.3125-56h28c-1.203125 7.125-4.003906 13.882812-8.199219 19.769531zm28-16h-39.3125v-39.28125c20.101562 3.4375 35.84375 19.179688 39.28125 39.28125zm-55.3125-39.28125v47.28125c-.003906 2.125.84375 4.167969 2.351562 5.664062l33.417969 33.414063c-16.085937 11.460937-37.546875 11.886719-54.074219 1.082031-16.527343-10.808594-24.742187-30.640625-20.695312-49.96875s19.523438-34.203125 39-37.472656zm0 0"/><path d="m200 352c-.039062 25.460938 15.042969 48.515625 38.386719 58.683594 23.34375 10.164062 50.496093 5.5 69.109375-11.875l6.847656 6.847656c1.5 1.5 3.535156 2.34375 5.65625 2.34375h16v-16h-12.6875l-5.496094-5.496094c14.773438-22.957031 13.363282-52.757812-3.519531-74.210937-16.878906-21.457031-45.511719-29.84375-71.300781-20.882813-25.789063 8.957032-43.054688 33.289063-42.996094 60.589844zm48 0c0-8.835938 7.164062-16 16-16s16 7.164062 16 16-7.164062 16-16 16-16-7.164062-16-16zm8-47.28125v16.417969c-14.085938 3.636719-23.945312 16.316406-24 30.863281.027344 5.695312 1.59375 11.277344 4.535156 16.152344l-11.613281 11.617187c-9.605469-13.441406-11.597656-30.882812-5.277344-46.144531 6.320313-15.261719 20.0625-26.1875 36.355469-28.90625zm45.65625 65.601562-11.3125 11.3125 5.847656 5.847657c-16.636718 15.230469-41.667968 16.722656-60 3.574219l11.617188-11.613282c4.886718 2.953125 10.480468 4.53125 16.191406 4.558594 14.546875-.054688 27.226562-9.914062 30.863281-24h16.417969c-.863281 5.207031-2.582031 10.234375-5.089844 14.878906zm9.625-26.320312h-16.417969c-2.925781-11.195312-11.667969-19.9375-22.863281-22.863281v-16.417969c20.101562 3.4375 35.84375 19.179688 39.28125 39.28125zm0 0"/><path d="m384 160h32v16h-32zm0 0"/><path d="m360 368c-4.417969 0-8 3.582031-8 8v32c0 4.417969 3.582031 8 8 8h32c4.417969 0 8-3.582031 8-8v-32c0-4.417969-3.582031-8-8-8zm24 32h-16v-16h16zm0 0"/><path d="m143.839844 321.601562 4.382812-21.898437c5.75-1.773437 11.320313-4.078125 16.640625-6.886719l18.585938 12.382813c3.171875 2.113281 7.390625 1.695312 10.085937-1l22.632813-22.632813c2.691406-2.695312 3.113281-6.914062 1-10.085937l-12.367188-18.625c2.820313-5.3125 5.128907-10.882813 6.894531-16.632813l21.90625-4.382812c3.722657-.761719 6.398438-4.039063 6.398438-7.839844v-32c0-3.800781-2.675781-7.078125-6.398438-7.839844l-21.898437-4.382812c-1.765625-5.75-4.074219-11.320313-6.894531-16.632813l12.390625-18.59375c2.113281-3.171875 1.695312-7.390625-1-10.085937l-22.632813-22.632813c-2.695312-2.691406-6.914062-3.113281-10.085937-1l-18.617188 12.367188c-5.320312-2.808594-10.890625-5.113281-16.640625-6.886719l-4.382812-21.914062c-.761719-3.722657-4.039063-6.398438-7.839844-6.398438h-32c-3.800781 0-7.078125 2.675781-7.839844 6.398438l-4.382812 21.898437c-5.75 1.769531-11.320313 4.078125-16.640625 6.886719l-18.585938-12.351563c-3.171875-2.113281-7.390625-1.691406-10.085937 1l-22.632813 22.632813c-2.691406 2.695312-3.113281 6.914062-1 10.085937l12.367188 18.59375c-2.820313 5.3125-5.128907 10.882813-6.894531 16.632813l-21.90625 4.382812c-3.722657.761719-6.398438 4.039063-6.398438 7.839844v32c0 3.800781 2.675781 7.078125 6.398438 7.839844l21.898437 4.382812c1.769531 5.75 4.082031 11.320313 6.902344 16.632813l-12.367188 18.59375c-2.113281 3.171875-1.691406 7.390625 1 10.085937l22.632813 22.632813c2.695312 2.691406 6.914062 3.113281 10.085937 1l18.585938-12.367188c5.320312 2.808594 10.890625 5.117188 16.640625 6.886719l4.382812 21.914062c.761719 3.722657 4.039063 6.398438 7.839844 6.398438h32c3.800781 0 7.078125-2.675781 7.839844-6.398438zm-10.335938-29.859374-4.0625 20.257812h-18.882812l-4.0625-20.289062c-.605469-3.035157-2.902344-5.449219-5.902344-6.199219-7.636719-1.894531-14.941406-4.921875-21.683594-8.976563-2.65625-1.570312-5.980468-1.492187-8.558594.207032l-17.214843 11.464843-13.351563-13.34375 11.480469-17.214843c1.714844-2.574219 1.792969-5.910157.199219-8.558594-4.058594-6.742188-7.085938-14.046875-8.984375-21.683594-.75-2.996094-3.160157-5.296875-6.191407-5.902344l-20.289062-4.054687v-18.898438l20.289062-4.054687c3.03125-.605469 5.441407-2.90625 6.191407-5.902344 1.898437-7.636719 4.925781-14.941406 8.984375-21.683594 1.59375-2.648437 1.515625-5.984375-.199219-8.558594l-11.480469-17.214843 13.351563-13.34375 17.214843 11.464843c2.574219 1.71875 5.90625 1.796876 8.558594.207032 6.742188-4.054688 14.046875-7.082032 21.683594-8.976563 3-.75 5.296875-3.164062 5.902344-6.199219l4.0625-20.289062h18.882812l4.0625 20.289062c.605469 3.035157 2.902344 5.449219 5.902344 6.199219 7.632812 1.898438 14.941406 4.925781 21.683594 8.976563 2.652344 1.589844 5.984375 1.511718 8.558594-.207032l17.214843-11.464843 13.351563 13.351562-11.480469 17.207031c-1.714844 2.574219-1.792969 5.910157-.199219 8.558594 4.058594 6.742188 7.085938 14.046875 8.984375 21.683594.75 2.996094 3.160157 5.296875 6.191407 5.902344l20.289062 4.054687v18.898438l-20.289062 4.054687c-3.03125.605469-5.441407 2.90625-6.191407 5.902344-1.898437 7.636719-4.925781 14.941406-8.984375 21.683594-1.59375 2.648437-1.515625 5.984375.199219 8.558594l11.480469 17.207031-13.351563 13.351562-17.214843-11.464843c-2.578126-1.707032-5.902344-1.785157-8.558594-.207032-6.742188 4.050782-14.050782 7.078125-21.683594 8.976563-3 .75-5.296875 3.164062-5.902344 6.199219zm0 0"/><path d="m176 208c0-30.929688-25.070312-56-56-56s-56 25.070312-56 56 25.070312 56 56 56c30.914062-.035156 55.964844-25.085938 56-56zm-56 40c-22.089844 0-40-17.910156-40-40s17.910156-40 40-40 40 17.910156 40 40c-.027344 22.082031-17.917969 39.972656-40 40zm0 0"/></svg>